<svg aria-hidden="true" style="position: absolute; width: 0; height: 0; overflow: hidden;" version="1.1" xmlns="http://www.w3.org/2000/svg" xmlns:xlink="http://www.w3.org/1999/xlink">
<defs>
<symbol id="icon-menu" viewBox="0 0 36 32">
<path d="M5.38 24h24.013v-2.667h-24.013v2.667zM5.38 17.333h24.013v-2.667h-24.013v2.667zM5.38 8v2.667h24.013v-2.667h-24.013z"></path>
</symbol>
<symbol id="icon-Frame" viewBox="0 0 32 32">
<path d="M19.5 18h-0.79l-0.28-0.27c0.98-1.14 1.57-2.62 1.57-4.23 0-3.59-2.91-6.5-6.5-6.5s-6.5 2.91-6.5 6.5c0 3.59 2.91 6.5 6.5 6.5 1.61 0 3.090-0.59 4.23-1.57l0.27 0.28v0.79l5 4.99 1.49-1.49-4.99-5zM13.5 18c-2.49 0-4.5-2.010-4.5-4.5s2.010-4.5 4.5-4.5c2.49 0 4.5 2.010 4.5 4.5s-2.010 4.5-4.5 4.5z"></path>
</symbol>
<symbol id="icon-Union-r" viewBox="0 0 19 32">
<path d="M11.255 15.88l-9.81 9.81c-1.277 1.277-1.277 3.348 0 4.625s3.348 1.277 4.625 0l12.172-12.172c1.277-1.277 1.277-3.348 0-4.625-0.164-0.164-0.341-0.307-0.528-0.429l-12.132-12.132c-1.277-1.277-3.348-1.277-4.625 0s-1.277 3.348 0 4.625l10.297 10.297z"></path>
</symbol>
<symbol id="icon-Union-l" viewBox="0 0 19 32">
<path d="M7.945 15.88l9.81 9.81c1.277 1.277 1.277 3.348 0 4.625s-3.348 1.277-4.625 0l-12.172-12.172c-1.277-1.277-1.277-3.348 0-4.625 0.164-0.164 0.341-0.307 0.528-0.429l12.132-12.132c1.277-1.277 3.348-1.277 4.625 0s1.277 3.348 0 4.625l-10.297 10.297z"></path>
</symbol>
<symbol id="icon-flower" viewBox="0 0 32 32">
<path d="M23.8 9.913v-4.956c0-0.547-0.444-0.991-0.992-0.991h-0.992v-2.973c0-0.547-0.444-0.991-0.992-0.991-1.404 0-3.554-0.108-6.078 1.404-1.569-0.467-2.679-0.413-3.839-0.413-0.548 0-0.992 0.444-0.992 0.991v1.982h-0.992c-0.548 0-0.992 0.444-0.992 0.991v4.956c0 4.037 3.034 7.378 6.942 7.867v12.947c0 0.547 0.444 0.991 0.992 0.991s0.992-0.444 0.992-0.991v-3.469h1.487c3.007 0 5.454-2.445 5.454-5.451v-1.487c0-0.547-0.444-0.991-0.992-0.991h-2.479c-1.317 0-2.527 0.469-3.471 1.249v-2.798c3.902-0.483 6.942-3.808 6.942-7.867zM21.817 9.913c0 1.764-0.78 3.357-2.014 4.449 0.020-0.159 0.031-0.321 0.031-0.485 0-2.51-0.939-4.805-2.483-6.553 1.309-0.893 2.862-1.376 4.467-1.376v3.965zM19.834 1.984v2.182c-0.183 0.037-0.365 0.080-0.546 0.127-0.643-0.72-1.377-1.333-2.178-1.828 0.866-0.316 1.785-0.481 2.724-0.481zM11.901 2.975c1.97 0 3.883 0.719 5.371 2.093-0.491 0.253-0.962 0.549-1.408 0.883-1.153-0.866-2.5-1.488-3.964-1.786v-1.19zM9.917 9.913v-3.965c4.374 0 7.933 3.557 7.933 7.929 0 1.108-0.915 2.010-2.035 1.981-3.484-0.086-5.898-2.852-5.898-5.946zM20.33 21.311h1.487v0.496c0 1.913-1.557 3.469-3.471 3.469h-1.487v-0.496c0-1.913 1.557-3.469 3.471-3.469z"></path>
</symbol>
<symbol id="icon-Union-up" viewBox="0 0 57 32">
<path d="M54.243 24.186c1.498 1.498 1.498 3.928 0 5.426s-3.928 1.498-5.426 0l-20.979-20.979-21.288 21.288c-1.498 1.498-3.928 1.498-5.426 0s-1.498-3.928 0-5.426l23.062-23.062c0.764-0.764 1.769-1.138 2.77-1.123 1.4-0.6 3.083-0.328 4.225 0.814l23.062 23.062z"></path>
</symbol>
<symbol id="icon-google" viewBox="0 0 32 32">
<path d="M16.319 13.713v5.487h9.075c-0.369 2.356-2.744 6.9-9.075 6.9-5.463 0-9.919-4.525-9.919-10.1s4.456-10.1 9.919-10.1c3.106 0 5.188 1.325 6.375 2.469l4.344-4.181c-2.788-2.612-6.4-4.188-10.719-4.188-8.844 0-16 7.156-16 16s7.156 16 16 16c9.231 0 15.363-6.494 15.363-15.631 0-1.050-0.113-1.85-0.25-2.65l-15.113-0.006z"></path>
</symbol>
<symbol id="icon-facebook" viewBox="0 0 32 32">
<path d="M19 6h5v-6h-5c-3.86 0-7 3.14-7 7v3h-4v6h4v16h6v-16h5l1-6h-6v-3c0-0.542 0.458-1 1-1z"></path>
</symbol>
<symbol id="icon-linkedin2" viewBox="0 0 32 32">
<path d="M12 12h5.535v2.837h0.079c0.77-1.381 2.655-2.837 5.464-2.837 5.842 0 6.922 3.637 6.922 8.367v9.633h-5.769v-8.54c0-2.037-0.042-4.657-3.001-4.657-3.005 0-3.463 2.218-3.463 4.509v8.688h-5.767v-18z"></path>
<path d="M2 12h6v18h-6v-18z"></path>
<path d="M8 7c0 1.657-1.343 3-3 3s-3-1.343-3-3c0-1.657 1.343-3 3-3s3 1.343 3 3z"></path>
</symbol>
</defs>
</svg>
